<?xml version="1.0" encoding="UTF-8"?>
<svg version="1.1" xmlns="http://www.w3.org/2000/svg" width="1080" height="1080">
<path d="M0 0 C356.4 0 712.8 0 1080 0 C1080 356.4 1080 712.8 1080 1080 C723.6 1080 367.2 1080 0 1080 C0 723.6 0 367.2 0 0 Z " fill="#FEFEFE" transform="translate(0,0)"/>
<path d="M0 0 C198 0 396 0 600 0 C600 32.34 600 64.68 600 98 C518.49 98 436.98 98 353 98 C353 141.89 353 185.78 353 231 C451.34 231 549.68 231 651 231 C651 263.34 651 295.68 651 329 C558.93 329 466.86 329 372 329 C379.02709246 343.05809432 379.02709246 343.05809432 386.375 356.9375 C386.93243896 357.96182129 387.48987793 358.98614258 388.06420898 360.04150391 C403.58606541 388.42750161 421.50265066 414.69648597 442.54345703 439.28466797 C443.94880964 440.93971448 445.33336376 442.61016773 446.71484375 444.28515625 C453.91401421 452.91352833 461.70242933 460.91714013 469.625 468.875 C470.1539386 469.40911499 470.6828772 469.94322998 471.22784424 470.49353027 C478.14845664 477.46749984 485.27464073 483.9079764 493 490 C494.33613181 491.08409581 495.67092783 492.16984169 497.00390625 493.2578125 C503.83563724 498.77714921 510.72296033 504.07481518 518 509 C519.19101042 509.82551696 520.3810359 510.65245592 521.5703125 511.48046875 C552.97618655 533.30522152 585.94936601 552.85099614 620.67822266 568.90820312 C622.87182184 569.93972526 625.03736389 571.01316487 627.19921875 572.109375 C633.46989704 575.27185483 640.00532316 577.83938999 646.5 580.5 C650.56648122 582.16587513 654.62619164 583.83842862 658.66015625 585.58203125 C661.72628906 586.8837929 664.80209267 588.06494676 667.9375 589.1875 C668.89527344 589.53167969 669.85304688 589.87585938 670.83984375 590.23046875 C671.55269531 590.48441406 672.26554688 590.73835937 673 591 C671.43148158 601.0400875 664.30531667 609.77871483 658.71194458 617.99713135 C650.99816303 629.34098799 643.62854944 640.87018177 636.40234375 652.53125 C633.36421959 657.43183557 630.26652937 662.29016796 627.125 667.125 C626.68824951 667.79756836 626.25149902 668.47013672 625.80151367 669.16308594 C624.09623967 671.78558819 622.38778795 674.40600279 620.67773438 677.02539062 C619.4072862 678.97341116 618.14087936 680.92400861 616.875 682.875 C616.49617676 683.45266113 616.11735352 684.03032227 615.72705078 684.62548828 C614.13550907 687.08217575 612.93137904 689.20586287 612 692 C598.12874438 690.43332265 585.64100841 682.96567076 573.55957031 676.39160156 C570.9590038 674.97771095 568.35121456 673.57789537 565.7421875 672.1796875 C532.94400079 654.52894763 500.98732538 635.13452938 471 613 C470.35627441 612.5261084 469.71254883 612.0522168 469.04931641 611.56396484 C461.55035216 606.02990333 454.13253585 600.4253456 446.96484375 594.46484375 C444.65611935 592.54546945 442.33577865 590.64483484 440.00390625 588.75390625 C432.03677847 582.27578487 424.2906577 575.65809235 416.80859375 568.625 C414.41165534 566.38474602 411.98207792 564.20716323 409.5 562.0625 C404.89443935 558.06016247 400.78599695 553.76023575 396.75 549.1875 C393.77868897 545.85588049 390.75047188 542.79541679 387.375 539.875 C383.91090334 536.87676461 380.89555845 533.75344503 377.94140625 530.2578125 C376.01132882 528.01317517 374.01568966 525.83915446 371.99975586 523.67163086 C367.5128187 518.84323832 363.21668745 513.94080707 359.15234375 508.74609375 C357.51650399 506.65898785 355.86411922 504.59237524 354.19140625 502.53515625 C347.46052008 494.24172356 341.06622052 485.79094187 335 477 C334.6169873 476.45005371 334.23397461 475.90010742 333.83935547 475.33349609 C327.12775288 465.66164293 321.08510392 455.60708263 315.08911133 445.47924805 C314.47318115 444.4406665 313.85725098 443.40208496 313.22265625 442.33203125 C312.67359619 441.40108643 312.12453613 440.4701416 311.55883789 439.51098633 C310.13733776 437.22122457 308.75087139 435.0499398 307 433 C306.34 433 305.68 433 305 433 C304.78085937 433.76183594 304.56171875 434.52367187 304.3359375 435.30859375 C302.46269417 441.4080568 300.40320209 446.43832303 296.64306641 451.59472656 C294.9743988 454.03747742 293.6002367 456.51402037 292.2265625 459.1328125 C289.19946927 464.74607389 285.82273279 470.03403369 282.25 475.3125 C281.63946777 476.22040283 281.02893555 477.12830566 280.39990234 478.0637207 C270.75793522 492.34703883 260.84649085 506.08654788 249.00390625 518.65234375 C246.47267712 521.39572155 244.15804168 524.2836555 241.828125 527.19921875 C236.98703174 533.15783683 231.67528885 538.51573992 226.1875 543.875 C224.34536862 545.68256741 222.50544201 547.49238511 220.66796875 549.3046875 C219.86641357 550.08827637 219.0648584 550.87186523 218.23901367 551.67919922 C215.99006073 554.01030234 214.00323627 556.45730701 212 559 C210.8023857 560.11811528 209.57312634 561.20344229 208.3125 562.25 C205.28255198 564.83272322 202.46255949 567.52036891 199.6875 570.375 C195.64457598 574.46638373 191.35947656 578.09945496 186.87109375 581.69140625 C183.95346132 584.0374209 181.10296249 586.45093926 178.25 588.875 C171.40397155 594.58296444 164.26499564 599.83971364 157 605 C156.3817334 605.43924805 155.7634668 605.87849609 155.12646484 606.33105469 C138.00157995 618.42923207 120.2158528 629.62170089 102 640 C101.30551758 640.39606445 100.61103516 640.79212891 99.89550781 641.20019531 C76.85857276 654.28146999 53.14282905 666.07331682 29.3125 677.625 C28.65282227 677.94506012 27.99314453 678.26512024 27.31347656 678.59487915 C-4.73428476 694.13371639 -4.73428476 694.13371639 -12 693 C-14.06678695 690.77204159 -15.37488617 689.00921374 -16.875 686.4375 C-17.29789307 685.75929199 -17.72078613 685.08108398 -18.15649414 684.38232422 C-19.46458157 682.26995464 -20.7352887 680.13856588 -22 678 C-22.75040445 676.75336549 -23.50166897 675.50724817 -24.25390625 674.26171875 C-25.35453924 672.43265343 -26.45132275 670.60165879 -27.5390625 668.76489258 C-31.69216394 661.76376927 -36.14618984 654.96250834 -40.59716797 648.1484375 C-42.88453881 644.64532866 -45.16227818 641.13600842 -47.4375 637.625 C-47.88561035 636.93414307 -48.3337207 636.24328613 -48.79541016 635.53149414 C-52.84860803 629.26713336 -56.8183792 622.95122371 -60.77416992 616.625 C-63.94066128 611.58794773 -67.24337223 606.71450536 -70.890625 602.0078125 C-72.33339855 599.39659558 -72.5845847 597.93235228 -72 595 C-68.48444582 592.2008229 -64.32097021 590.89193637 -60.125 589.375 C-58.70130427 588.8516692 -57.27816035 588.32683567 -55.85546875 587.80078125 C-55.08251465 587.51541504 -54.30956055 587.23004883 -53.51318359 586.93603516 C-40.85042308 582.21979037 -28.31177122 577.33852285 -16.1328125 571.4765625 C-13.4672954 570.22024646 -10.81524334 569.10727057 -8.0625 568.0625 C-3.10509946 566.13642799 1.60006761 563.75495776 6.3347168 561.34619141 C11.18680169 558.88444292 16.0816572 556.5334288 21.0078125 554.22363281 C28.65796651 550.63557981 36.13441244 547.01163387 43.33203125 542.5703125 C45.45919351 541.31830777 47.55913679 540.21594172 49.7734375 539.13671875 C54.28462502 536.91106533 58.53935361 534.33597728 62.8125 531.6875 C63.6058374 531.19822021 64.3991748 530.70894043 65.21655273 530.20483398 C66.78417242 529.23636779 68.35070287 528.26613575 69.91601562 527.29394531 C71.61278004 526.24042477 73.31361127 525.19345629 75.015625 524.1484375 C87.20352506 516.55903961 98.94456599 508.15702615 110 499 C110.88945312 498.28328125 111.77890625 497.5665625 112.6953125 496.828125 C122.9694349 488.52869465 132.58417857 479.63394068 141.9375 470.3125 C142.41834045 469.83366364 142.89918091 469.35482727 143.39459229 468.86148071 C150.04134565 462.22149256 156.23252935 455.44461891 161.828125 447.89453125 C163.81419328 445.2476309 165.89081929 442.81268167 168.125 440.375 C180.34361538 426.86498624 190.08409326 411.1584419 198.77880859 395.21875 C200.10968425 392.80071762 201.46912265 390.40011369 202.83203125 388 C207.51049456 379.7118333 211.85213126 371.65480756 215.02734375 362.6640625 C215.87383267 360.34556674 216.82620641 358.28846269 218 356.125 C220.55817281 351.25722179 222.08179523 346.00042932 223.75390625 340.78125 C225.06042979 336.81662686 226.53428607 332.90857047 228 329 C135.93 329 43.86 329 -51 329 C-51 296.66 -51 264.32 -51 231 C46.68 231 144.36 231 245 231 C245 187.11 245 143.22 245 98 C164.15 98 83.3 98 0 98 C0 65.66 0 33.32 0 0 Z " fill="#FE8383" transform="translate(238,194)"/>
</svg>
